<svg xmlns="http://www.w3.org/2000/svg" viewBox="-6.40 -2.03 232.89 56.91" width="233" height="57" role="img" aria-label="TesterKit"><g transform="translate(2.300,5.920) scale(0.66000)"><path d="M7.5 10.5 H56.5 M7.5 53.5 H56.5" fill="none" stroke="#16a34a" stroke-width="5" stroke-linecap="round" stroke-linejoin="round"/><path d="M8.5 43 Q19.3 17.1 32 31 Q44.7 44.7 55.5 21" fill="none" stroke="#16a34a" stroke-width="5" stroke-linecap="round" stroke-linejoin="round"/></g><g transform="translate(46.74,42.0) scale(0.02092,-0.02092)"><g fill="#2b3038"><path d="M444 1176H31V1434H1171V1176H757V0H444Z" transform="translate(0.0,0)"/><path d="M1050 557Q1050 474 1025 390L389 385Q415 312 475.5 270.0Q536 228 627 228Q694 228 769.0 243.0Q844 258 919 287L970 47Q899 17 790.0 -3.0Q681 -23 592 -23Q345 -23 208.5 103.5Q72 230 72 493Q72 657 132.5 771.5Q193 886 307.5 944.5Q422 1003 582 1003Q739 1003 844.0 941.0Q949 879 999.5 777.5Q1050 676 1050 557ZM756 607Q756 672 714.0 714.5Q672 757 580 757Q493 757 444.5 710.0Q396 663 380 580L755 584Q756 592 756 607Z" transform="translate(1128.3,0)"/><path d="M66 53 140 300Q301 228 415 226Q553 227 554 308Q554 337 533.0 354.5Q512 372 481.5 381.5Q451 391 393 404Q302 424 242.5 447.0Q183 470 139.5 525.5Q96 581 96 679Q99 999 478 999Q680 999 828 936L771 683Q630 738 508 738Q452 737 428.0 727.5Q404 718 402 689Q403 661 435.5 645.5Q468 630 540 611Q634 585 696.0 558.0Q758 531 805.0 473.0Q852 415 852 318Q852 -25 415 -25Q248 -24 66 53Z" transform="translate(2164.6,0)"/><path d="M661 252Q701 252 752 259V-18Q688 -24 620 -24Q405 -24 306.5 51.5Q208 127 208 273V741H41L43 973H208V1323H515V974H752L750 742H515V422Q515 252 661 252Z" transform="translate(2993.9,0)"/><path d="M1050 557Q1050 474 1025 390L389 385Q415 312 475.5 270.0Q536 228 627 228Q694 228 769.0 243.0Q844 258 919 287L970 47Q899 17 790.0 -3.0Q681 -23 592 -23Q345 -23 208.5 103.5Q72 230 72 493Q72 657 132.5 771.5Q193 886 307.5 944.5Q422 1003 582 1003Q739 1003 844.0 941.0Q949 879 999.5 777.5Q1050 676 1050 557ZM756 607Q756 672 714.0 714.5Q672 757 580 757Q493 757 444.5 710.0Q396 663 380 580L755 584Q756 592 756 607Z" transform="translate(3719.2,0)"/><path d="M713 1007Q761 1007 821 990L793 684Q765 687 738 687Q557 687 451 558L449 0H133L135 974H408L446 766Q526 1007 713 1007Z" transform="translate(4755.5,0)"/></g><g fill="#16a34a"><path d="M653 651 478 440V0H164V1434H478V834Q493 871 512.0 901.5Q531 932 559 966L976 1484L1321 1459L863 905L1341 0H970Z" transform="translate(5498.8,0)"/><path d="M120 1361Q120 1408 142.5 1447.0Q165 1486 204.0 1508.5Q243 1531 291 1531Q339 1531 377.5 1508.5Q416 1486 438.5 1447.0Q461 1408 461 1361Q461 1313 439.0 1273.5Q417 1234 378.0 1211.5Q339 1189 291 1189Q243 1189 204.0 1211.5Q165 1234 142.5 1273.5Q120 1313 120 1361ZM133 974H449V0H133Z" transform="translate(6756.1,0)"/><path d="M661 252Q701 252 752 259V-18Q688 -24 620 -24Q405 -24 306.5 51.5Q208 127 208 273V741H41L43 973H208V1323H515V974H752L750 742H515V422Q515 252 661 252Z" transform="translate(7266.4,0)"/></g></g></svg>
